<svg xmlns="http://www.w3.org/2000/svg" version="1.1" xmlns:xlink="http://www.w3.org/1999/xlink" viewBox="0 0 200 200"><rect width="200" height="200" fill="url('#gradient')"></rect><defs><linearGradient id="gradient" gradientTransform="rotate(45 0.5 0.5)"><stop offset="0%" stop-color="#2d34e1"></stop><stop offset="100%" stop-color="#eb32c9"></stop></linearGradient></defs><g><g fill="#172526" transform="matrix(6.44926522043387,0,0,6.44926522043387,7.034774520895212,145.8585316589281)" stroke="#1344ca" stroke-width="0.2"><path d="M3.88-6.04L3.88-8.49L5.43-8.49Q7.28-8.49 7.28-10.29L7.28-10.29Q7.28-11.00 6.84-11.44Q6.40-11.88 5.60-11.88L5.60-11.88Q4.94-11.88 4.46-11.50Q3.97-11.12 3.97-10.56L3.97-10.56L0.68-10.56Q0.68-11.68 1.31-12.56Q1.93-13.44 3.04-13.93Q4.15-14.42 5.48-14.42L5.48-14.42Q7.85-14.42 9.21-13.34Q10.57-12.26 10.57-10.36L10.57-10.36Q10.57-9.44 10.00-8.63Q9.44-7.81 8.37-7.30L8.37-7.30Q9.50-6.89 10.15-6.06Q10.79-5.22 10.79-3.99L10.79-3.99Q10.79-2.09 9.33-0.95Q7.86 0.20 5.48 0.20L5.48 0.20Q4.08 0.20 2.89-0.34Q1.69-0.87 1.07-1.81Q0.46-2.75 0.46-3.96L0.46-3.96L3.77-3.96Q3.77-3.30 4.30-2.82Q4.82-2.34 5.60-2.34L5.60-2.34Q6.46-2.34 6.98-2.83Q7.50-3.31 7.50-4.06L7.50-4.06Q7.50-5.14 6.96-5.59Q6.43-6.04 5.48-6.04L5.48-6.04L3.88-6.04ZM14.54-3.19L14.54-3.19Q15.32-3.19 15.84-2.73Q16.36-2.27 16.36-1.54Q16.36-0.82 15.84-0.36Q15.32 0.11 14.54 0.11L14.54 0.11Q13.75 0.11 13.24-0.36Q12.72-0.83 12.72-1.54Q12.72-2.26 13.24-2.72Q13.75-3.19 14.54-3.19ZM28.37-8.40L28.37-5.81Q28.37-2.93 27.08-1.37Q25.78 0.20 23.43 0.20L23.43 0.20Q21.05 0.20 19.76-1.38Q18.46-2.95 18.46-5.81L18.46-5.81L18.46-8.41Q18.46-11.29 19.75-12.85Q21.04-14.41 23.41-14.41Q25.77-14.41 27.07-12.84Q28.37-11.27 28.37-8.40L28.37-8.40ZM25.08-5.31L25.08-8.83Q25.08-10.36 24.68-11.12Q24.28-11.88 23.41-11.88L23.41-11.88Q22.56-11.88 22.17-11.17Q21.79-10.47 21.76-9.04L21.76-9.04L21.76-5.41Q21.76-3.82 22.16-3.08Q22.56-2.34 23.43-2.34L23.43-2.34Q24.27-2.34 24.67-3.06Q25.07-3.78 25.08-5.31L25.08-5.31Z"></path></g></g></svg>